<svg xmlns="http://www.w3.org/2000/svg" xmlns:xlink="http://www.w3.org/1999/xlink" width="500" zoomAndPan="magnify" viewBox="0 0 375 374.999991" height="500" preserveAspectRatio="xMidYMid meet" version="1.0"><defs><g/><clipPath id="bec7fc1706"><path d="M 137 79.539062 L 170 79.539062 L 170 114 L 137 114 Z M 137 79.539062 " clip-rule="nonzero"/></clipPath></defs><g clip-path="url(#bec7fc1706)"><path fill="#991b1b" d="M 151.453125 85.175781 C 151.660156 84.757812 151.867188 84.371094 152.128906 83.984375 C 152.179688 83.929688 152.207031 83.851562 152.257812 83.800781 C 153.375 82.222656 154.90625 81.132812 157.085938 80.433594 L 157.164062 80.410156 C 159.679688 79.632812 162.277344 79.941406 164.429688 81.054688 C 166.613281 82.195312 168.375 84.136719 169.179688 86.675781 L 169.207031 86.753906 C 170.425781 90.636719 169.777344 94.9375 168.195312 99.441406 C 166.714844 103.636719 164.484375 107.988281 162.226562 112.339844 C 161.5 113.738281 159.8125 114.28125 158.410156 113.558594 C 154.050781 111.304688 149.6875 109.050781 146.054688 106.488281 C 142.136719 103.691406 139.097656 100.53125 137.851562 96.621094 L 137.828125 96.542969 C 137.046875 94.03125 137.359375 91.441406 138.476562 89.292969 C 139.617188 87.117188 141.5625 85.355469 144.109375 84.550781 L 144.132812 84.550781 C 146.390625 83.828125 148.339844 83.878906 150.207031 84.605469 C 150.3125 84.628906 150.390625 84.683594 150.492188 84.734375 C 150.832031 84.863281 151.140625 85.019531 151.453125 85.175781 Z M 156.851562 87.140625 C 156.359375 87.867188 156.046875 88.953125 155.839844 90.351562 C 155.761719 90.976562 155.503906 91.597656 155.007812 92.0625 C 153.894531 93.148438 152.101562 93.125 151.011719 92.011719 C 150.027344 91 149.167969 90.277344 148.390625 89.9375 L 148.234375 89.886719 C 147.613281 89.652344 146.9375 89.628906 146.082031 89.886719 C 145.949219 89.9375 145.820312 89.992188 145.664062 90.015625 C 144.730469 90.378906 143.976562 91.050781 143.535156 91.90625 C 143.09375 92.761719 142.964844 93.746094 143.226562 94.730469 C 143.277344 94.859375 143.328125 95.015625 143.355469 95.144531 C 144.210938 97.605469 146.445312 99.804688 149.375 101.878906 C 152 103.742188 155.21875 105.503906 158.511719 107.238281 C 160.226562 103.898438 161.808594 100.632812 162.875 97.605469 C 164.042969 94.238281 164.585938 91.128906 163.886719 88.617188 C 163.835938 88.488281 163.78125 88.359375 163.757812 88.203125 C 163.394531 87.273438 162.71875 86.519531 161.863281 86.082031 C 161.003906 85.640625 160.019531 85.511719 159.03125 85.769531 C 158.902344 85.820312 158.773438 85.875 158.617188 85.898438 C 157.839844 86.183594 157.320312 86.546875 156.957031 87.039062 Z M 157.164062 80.433594 C 157.421875 80.355469 157.683594 80.332031 157.941406 80.332031 Z M 137.851562 96.570312 C 137.773438 96.308594 137.75 96.050781 137.75 95.792969 Z M 137.851562 96.570312 " fill-opacity="1" fill-rule="nonzero"/></g><path fill="#1e3a8a" d="M 182.988281 149.292969 C 185.378906 140.464844 185.6875 140.308594 186.390625 138.523438 C 185.480469 136.191406 184 131.0625 182.210938 120.109375 C 179.25 101.980469 181.40625 97.96875 181.40625 97.96875 C 182.054688 96.570312 183.742188 95.945312 185.167969 96.59375 C 185.324219 96.671875 185.457031 96.75 185.585938 96.828125 L 211.902344 114.957031 C 214.8125 114.644531 223.246094 113.710938 232.097656 112.804688 C 231.1875 97.191406 243.230469 85.226562 244.453125 84.035156 C 244.6875 83.777344 244.972656 83.566406 245.308594 83.4375 C 246.738281 82.792969 248.421875 83.4375 249.046875 84.863281 L 261.375 112.210938 C 264.644531 113.402344 267.863281 115.34375 270.980469 117.933594 C 277.050781 122.957031 282.789062 130.441406 287.929688 139.167969 C 289.902344 142.535156 292.730469 146.574219 295.742188 150.902344 C 306.796875 166.75 320.425781 186.328125 312.378906 201.632812 C 310.277344 205.621094 306.433594 209.609375 301.527344 213.207031 C 297.6875 216.03125 293.117188 218.671875 288.238281 220.953125 C 288.1875 220.976562 288.136719 221.003906 288.058594 221.03125 C 282.839844 223.4375 277.234375 225.40625 271.652344 226.726562 C 260.519531 229.367188 249.382812 229.445312 241.363281 225.226562 C 239.574219 224.292969 237.9375 223.128906 236.484375 221.753906 C 233.941406 220.019531 228.722656 217.636719 223.066406 217.273438 C 219.378906 217.042969 215.5625 217.664062 212.371094 220.019531 C 208.035156 223.203125 202.480469 225.171875 197.941406 225.300781 C 195.65625 225.355469 193.578125 224.964844 191.890625 224.035156 C 189.945312 222.972656 188.570312 221.3125 188 218.933594 C 187.429688 216.550781 187.816406 213.492188 189.476562 209.6875 C 192.410156 203.003906 197.445312 198.707031 202.898438 196.089844 C 208.035156 193.628906 213.617188 192.671875 218.132812 192.671875 C 214.785156 186.070312 212.320312 180.476562 210.945312 177.1875 C 208.894531 179.464844 207.621094 181.484375 207.621094 181.511719 C 206.789062 182.832031 205.050781 183.21875 203.726562 182.390625 C 202.402344 181.5625 202.015625 179.828125 202.84375 178.507812 C 202.871094 178.480469 210.347656 166.621094 219.820312 165.402344 C 221.378906 165.195312 222.78125 166.308594 222.988281 167.835938 C 223.195312 169.390625 222.078125 170.789062 220.546875 170.996094 C 218.757812 171.230469 217.042969 172.058594 215.433594 173.144531 C 216.628906 176.097656 220.210938 184.566406 225.480469 194.484375 C 225.53125 194.589844 225.609375 194.691406 225.632812 194.796875 C 227.320312 197.957031 229.214844 201.269531 231.242188 204.609375 L 231.265625 204.664062 L 231.292969 204.6875 C 233.578125 208.445312 236.070312 212.199219 238.714844 215.773438 C 240.117188 217.664062 241.910156 219.140625 243.984375 220.226562 C 250.679688 223.722656 260.441406 223.566406 270.355469 221.210938 C 275.078125 220.097656 279.828125 218.464844 284.320312 216.523438 C 284.527344 214.039062 284.839844 208.910156 284.578125 203.367188 C 281.570312 203.058594 277 202.074219 270.71875 199.378906 C 258.078125 193.914062 255.871094 186.171875 260.234375 184.125 C 264.59375 182.054688 271.238281 178.453125 286.394531 176.175781 C 301.554688 173.898438 297.636719 182.960938 296.519531 188.035156 C 295.507812 192.644531 293.792969 200.777344 290.210938 202.851562 C 290.417969 206.914062 290.339844 210.800781 290.1875 213.675781 C 293.09375 212.121094 295.792969 210.410156 298.207031 208.652344 C 302.464844 205.515625 305.707031 202.203125 307.394531 199.015625 C 313.859375 186.742188 301.296875 168.742188 291.09375 154.136719 C 288.082031 149.8125 285.253906 145.773438 283.046875 142.019531 C 278.21875 133.808594 272.898438 126.84375 267.371094 122.257812 C 264.464844 119.851562 261.503906 118.113281 258.570312 117.207031 L 258.519531 117.183594 C 256.78125 116.664062 255.042969 116.457031 253.328125 116.5625 C 241.882812 117.285156 211.59375 120.679688 211.488281 120.679688 C 210.839844 120.757812 210.140625 120.601562 209.566406 120.1875 L 186.183594 104.078125 C 186.207031 106.824219 186.546875 111.433594 187.816406 119.175781 C 190.492188 135.621094 191.582031 136.65625 191.582031 136.65625 C 192.308594 137.484375 192.515625 138.730469 191.96875 139.765625 C 191.96875 139.765625 191.945312 137.847656 188.699219 149.839844 C 186.261719 155.355469 182.210938 152.222656 182.988281 149.292969 Z M 266.460938 134.402344 C 269.449219 134.402344 271.863281 138.496094 271.863281 143.546875 C 271.863281 148.59375 269.449219 152.6875 266.460938 152.6875 C 263.476562 152.6875 261.0625 148.59375 261.0625 143.546875 C 261.089844 138.496094 263.503906 134.402344 266.460938 134.402344 Z M 241.027344 139.636719 C 244.011719 139.636719 246.425781 143.726562 246.425781 148.777344 C 246.425781 153.828125 244.011719 157.917969 241.027344 157.917969 C 238.042969 157.917969 235.628906 153.828125 235.628906 148.777344 C 235.628906 143.726562 238.042969 139.636719 241.027344 139.636719 Z M 226.722656 208.027344 C 225.480469 207.199219 220.261719 204.53125 209.335938 209.273438 C 207.90625 209.894531 206.246094 209.21875 205.621094 207.796875 C 205 206.371094 205.675781 204.714844 207.101562 204.09375 C 213.695312 201.246094 218.859375 200.726562 222.675781 201.089844 C 222.183594 200.207031 221.714844 199.355469 221.246094 198.5 C 217.328125 197.929688 211.097656 198.449219 205.390625 201.167969 C 201.027344 203.265625 197.03125 206.65625 194.695312 211.941406 C 193.554688 214.53125 193.242188 216.394531 193.554688 217.636719 C 193.710938 218.285156 194.097656 218.75 194.644531 219.0625 C 195.421875 219.5 196.539062 219.683594 197.835938 219.65625 C 201.289062 219.578125 205.597656 218 209.046875 215.460938 C 213.488281 212.222656 218.601562 211.316406 223.480469 211.628906 C 225.632812 211.757812 227.738281 212.148438 229.710938 212.691406 C 228.671875 211.136719 227.683594 209.582031 226.722656 208.027344 Z M 226.722656 208.027344 " fill-opacity="1" fill-rule="nonzero"/><path fill="#1e3a8a" d="M 99.984375 195.082031 C 99.855469 193.527344 101.023438 192.15625 102.578125 192.050781 C 104.136719 191.921875 105.511719 193.085938 105.617188 194.640625 C 105.617188 194.667969 106.03125 200.441406 108.625 200.3125 C 112.285156 200.128906 115.503906 192.957031 115.53125 192.957031 C 116.179688 191.53125 117.867188 190.910156 119.269531 191.558594 C 120.074219 191.921875 120.617188 192.621094 120.824219 193.398438 C 120.824219 193.421875 123.136719 202.019531 127.367188 201.191406 C 132.6875 200.128906 134.609375 195.132812 134.609375 195.105469 C 135.179688 193.65625 136.8125 192.929688 138.269531 193.5 C 139.722656 194.070312 140.449219 195.703125 139.878906 197.152344 C 139.878906 197.179688 136.839844 205.023438 128.457031 206.707031 C 123.109375 207.769531 119.632812 203.886719 117.605469 200.285156 C 115.558594 202.980469 112.570312 205.777344 108.886719 205.957031 C 100.734375 206.371094 99.984375 195.105469 99.984375 195.082031 Z M 181.09375 210.542969 C 181.355469 212.070312 180.316406 213.546875 178.757812 213.804688 C 177.226562 214.0625 175.746094 213.027344 175.488281 211.472656 C 174.789062 207.355469 173.984375 202.644531 173.125 197.671875 C 168.972656 198.265625 166.144531 199.09375 166.117188 199.09375 C 164.613281 199.535156 163.054688 198.65625 162.613281 197.179688 C 162.171875 195.675781 163.054688 194.121094 164.535156 193.683594 C 164.5625 193.683594 167.625 192.777344 172.140625 192.128906 C 171.671875 189.382812 171.179688 186.613281 170.6875 183.839844 C 166.117188 185.421875 163.472656 187.078125 163.472656 187.078125 C 162.148438 187.882812 160.382812 187.46875 159.578125 186.144531 C 158.773438 184.824219 159.1875 183.066406 160.511719 182.261719 C 160.539062 182.261719 163.910156 180.113281 169.675781 178.246094 C 169.414062 176.796875 169.15625 175.375 168.894531 174 C 168.585938 172.292969 168.273438 170.609375 167.960938 168.976562 C 165.289062 169.960938 162.820312 170.96875 160.769531 171.878906 C 160.097656 172.160156 159.65625 172.367188 159.421875 172.472656 L 159.292969 172.523438 C 158.796875 172.757812 158.332031 172.964844 157.96875 173.144531 C 156.566406 173.820312 154.851562 173.199219 154.203125 171.800781 C 153.53125 170.402344 154.152344 168.71875 155.554688 168.042969 C 156.019531 167.835938 156.488281 167.605469 156.929688 167.398438 C 156.980469 167.371094 157.035156 167.34375 157.085938 167.34375 C 157.785156 167.035156 158.28125 166.800781 158.511719 166.699219 C 160.902344 165.636719 163.78125 164.46875 166.921875 163.332031 C 166.039062 158.824219 165.234375 154.886719 164.585938 151.960938 C 162.070312 140.878906 159.03125 134.765625 157.164062 131.8125 L 141.070312 148.464844 C 140.34375 149.21875 139.28125 149.476562 138.34375 149.242188 C 138.320312 149.242188 127.003906 146.34375 120.175781 146.679688 C 113.429688 146.988281 107.535156 149.347656 107.535156 149.347656 C 106.34375 149.839844 104.992188 149.425781 104.238281 148.464844 C 103.460938 147.585938 97.414062 140.957031 90.585938 138.9375 C 85.96875 137.5625 80.855469 136.917969 77.453125 136.605469 L 83.421875 158.152344 C 83.605469 158.773438 83.554688 159.394531 83.320312 159.9375 C 83.058594 160.714844 81.789062 164.652344 80.074219 170.761719 C 86.824219 172.160156 90.457031 174.519531 90.457031 174.542969 C 91.78125 175.375 92.195312 177.109375 91.367188 178.429688 C 90.535156 179.75 88.796875 180.164062 87.472656 179.335938 C 87.445312 179.335938 84.4375 177.339844 78.597656 176.203125 C 78.414062 176.925781 78.207031 177.679688 78.023438 178.453125 C 77.246094 181.535156 76.625 184.386719 76.128906 186.871094 C 80.855469 186.277344 84.410156 186.015625 84.4375 186.015625 C 85.992188 185.914062 87.367188 187.078125 87.472656 188.632812 C 87.578125 190.1875 86.410156 191.558594 84.851562 191.664062 C 84.824219 191.664062 80.4375 192 75.117188 192.699219 C 74.910156 194.121094 74.753906 195.261719 74.675781 196.039062 C 75.664062 197.023438 77.375 198.679688 79.609375 200.675781 C 84.175781 198.863281 87.03125 198.523438 87.058594 198.523438 C 88.613281 198.34375 90.015625 199.457031 90.199219 201.011719 C 90.378906 202.566406 89.261719 203.964844 87.707031 204.144531 C 87.707031 204.144531 86.539062 204.273438 84.539062 204.894531 C 89.730469 209.089844 96.167969 213.570312 102.320312 215.929688 C 103.773438 216.496094 104.527344 218.128906 103.953125 219.578125 C 103.410156 221.03125 101.75 221.78125 100.292969 221.210938 C 92.535156 218.257812 84.460938 212.277344 78.570312 207.277344 C 75.402344 208.804688 71.585938 211.085938 67.382812 214.453125 C 66.164062 215.4375 64.371094 215.230469 63.410156 214.011719 C 62.425781 212.792969 62.632812 211.007812 63.851562 210.050781 C 67.511719 207.121094 70.992188 204.921875 74.054688 203.265625 C 71.769531 201.140625 70.238281 199.613281 69.824219 199.171875 C 69.199219 198.601562 68.835938 197.75 68.914062 196.839844 C 68.914062 196.839844 69.019531 195.675781 69.304688 193.605469 C 65.488281 194.277344 61.777344 195.132812 59.207031 196.167969 C 57.753906 196.765625 56.117188 196.066406 55.519531 194.640625 C 54.925781 193.191406 55.625 191.558594 57.050781 190.964844 C 60.425781 189.566406 65.410156 188.503906 70.238281 187.726562 C 70.785156 184.722656 71.535156 181.097656 72.574219 177.082031 L 72.988281 175.503906 C 69.511719 175.269531 65.410156 175.425781 60.710938 176.203125 C 59.179688 176.460938 57.703125 175.425781 57.441406 173.871094 C 57.183594 172.34375 58.222656 170.867188 59.777344 170.609375 C 65.382812 169.675781 70.316406 169.597656 74.46875 169.960938 C 76 164.496094 77.246094 160.507812 77.765625 158.875 L 70.964844 134.300781 C 70.886719 134.042969 70.859375 133.757812 70.859375 133.472656 C 70.886719 131.917969 72.183594 130.675781 73.742188 130.726562 C 73.769531 130.726562 83.761719 131.039062 92.222656 133.523438 C 98.867188 135.492188 104.757812 140.878906 107.304688 143.46875 C 109.847656 142.640625 114.675781 141.320312 119.941406 141.058594 C 125.9375 140.773438 134.609375 142.585938 138.164062 143.390625 L 155.320312 125.625 C 155.371094 125.574219 155.425781 125.496094 155.476562 125.445312 C 156.59375 124.332031 158.382812 124.332031 159.5 125.445312 C 159.527344 125.46875 165.832031 131.761719 170.140625 150.71875 C 170.789062 153.542969 171.542969 157.269531 172.375 161.570312 L 172.867188 161.414062 C 178.394531 159.835938 184.390625 158.722656 189.972656 158.902344 C 191.527344 158.953125 192.773438 160.25 192.722656 161.804688 C 192.671875 163.355469 191.371094 164.601562 189.816406 164.546875 C 184.910156 164.417969 179.511719 165.429688 174.425781 166.878906 C 174.085938 166.984375 173.773438 167.058594 173.4375 167.164062 C 173.800781 169.027344 174.136719 170.96875 174.5 172.964844 L 175.203125 176.746094 C 179.382812 175.839844 184.289062 175.242188 189.738281 175.476562 C 191.296875 175.527344 192.515625 176.847656 192.464844 178.402344 C 192.410156 179.957031 191.085938 181.175781 189.53125 181.121094 C 184.496094 180.914062 180.003906 181.457031 176.214844 182.3125 C 176.761719 185.421875 177.304688 188.503906 177.851562 191.558594 C 180.601562 191.402344 183.585938 191.402344 186.570312 191.738281 C 188.128906 191.921875 189.246094 193.320312 189.089844 194.847656 C 188.90625 196.402344 187.503906 197.515625 185.972656 197.332031 C 183.535156 197.050781 181.121094 197.023438 178.835938 197.125 C 179.640625 201.996094 180.417969 206.554688 181.09375 210.542969 Z M 181.09375 210.542969 " fill-opacity="1" fill-rule="nonzero"/><path fill="#1e3a8a" d="M 106.316406 166.050781 C 109.042969 166.050781 111.273438 169.855469 111.273438 174.542969 C 111.273438 179.230469 109.066406 183.039062 106.316406 183.039062 C 103.589844 183.039062 101.359375 179.230469 101.359375 174.542969 C 101.386719 169.832031 103.589844 166.050781 106.316406 166.050781 Z M 106.316406 166.050781 " fill-opacity="1" fill-rule="evenodd"/><path fill="#1e3a8a" d="M 135.386719 165.792969 C 138.113281 165.792969 140.34375 169.597656 140.34375 174.285156 C 140.34375 178.972656 138.136719 182.78125 135.386719 182.78125 C 132.660156 182.78125 130.429688 178.972656 130.429688 174.285156 C 130.429688 169.597656 132.660156 165.792969 135.386719 165.792969 Z M 135.386719 165.792969 " fill-opacity="1" fill-rule="evenodd"/><g fill="#1e3a8a" fill-opacity="1"><g transform="translate(112.898167, 267.62799)"><g><path d="M 19.421875 -15.484375 C 19.421875 -14.160156 19.113281 -12.953125 18.5 -11.859375 C 17.894531 -10.765625 16.960938 -9.878906 15.703125 -9.203125 C 14.453125 -8.535156 12.894531 -8.203125 11.03125 -8.203125 L 7.578125 -8.203125 L 7.578125 0 L 2.015625 0 L 2.015625 -22.84375 L 11.03125 -22.84375 C 12.851562 -22.84375 14.390625 -22.523438 15.640625 -21.890625 C 16.898438 -21.265625 17.84375 -20.394531 18.46875 -19.28125 C 19.101562 -18.175781 19.421875 -16.910156 19.421875 -15.484375 Z M 10.609375 -12.625 C 11.671875 -12.625 12.460938 -12.875 12.984375 -13.375 C 13.503906 -13.875 13.765625 -14.578125 13.765625 -15.484375 C 13.765625 -16.390625 13.503906 -17.09375 12.984375 -17.59375 C 12.460938 -18.09375 11.671875 -18.34375 10.609375 -18.34375 L 7.578125 -18.34375 L 7.578125 -12.625 Z M 10.609375 -12.625 "/></g></g></g><g fill="#1e3a8a" fill-opacity="1"><g transform="translate(135.377945, 267.62799)"><g><path d="M 16.234375 -4.03125 L 7.703125 -4.03125 L 6.34375 0 L 0.515625 0 L 8.78125 -22.84375 L 15.21875 -22.84375 L 23.484375 0 L 17.59375 0 Z M 14.796875 -8.328125 L 11.96875 -16.6875 L 9.171875 -8.328125 Z M 14.796875 -8.328125 "/></g></g></g><g fill="#1e3a8a" fill-opacity="1"><g transform="translate(161.533758, 267.62799)"><g><path d="M 33.4375 -22.84375 L 27.484375 0 L 20.75 0 L 17.109375 -15.03125 L 13.34375 0 L 6.609375 0 L 0.8125 -22.84375 L 6.765625 -22.84375 L 10.046875 -6.21875 L 14.125 -22.84375 L 20.234375 -22.84375 L 24.140625 -6.21875 L 27.453125 -22.84375 Z M 33.4375 -22.84375 "/></g></g></g><g fill="#1e3a8a" fill-opacity="1"><g transform="translate(197.93692, 267.62799)"><g><path d="M 19.421875 -15.484375 C 19.421875 -14.160156 19.113281 -12.953125 18.5 -11.859375 C 17.894531 -10.765625 16.960938 -9.878906 15.703125 -9.203125 C 14.453125 -8.535156 12.894531 -8.203125 11.03125 -8.203125 L 7.578125 -8.203125 L 7.578125 0 L 2.015625 0 L 2.015625 -22.84375 L 11.03125 -22.84375 C 12.851562 -22.84375 14.390625 -22.523438 15.640625 -21.890625 C 16.898438 -21.265625 17.84375 -20.394531 18.46875 -19.28125 C 19.101562 -18.175781 19.421875 -16.910156 19.421875 -15.484375 Z M 10.609375 -12.625 C 11.671875 -12.625 12.460938 -12.875 12.984375 -13.375 C 13.503906 -13.875 13.765625 -14.578125 13.765625 -15.484375 C 13.765625 -16.390625 13.503906 -17.09375 12.984375 -17.59375 C 12.460938 -18.09375 11.671875 -18.34375 10.609375 -18.34375 L 7.578125 -18.34375 L 7.578125 -12.625 Z M 10.609375 -12.625 "/></g></g></g><g fill="#1e3a8a" fill-opacity="1"><g transform="translate(220.416697, 267.62799)"><g><path d="M 16.234375 -4.03125 L 7.703125 -4.03125 L 6.34375 0 L 0.515625 0 L 8.78125 -22.84375 L 15.21875 -22.84375 L 23.484375 0 L 17.59375 0 Z M 14.796875 -8.328125 L 11.96875 -16.6875 L 9.171875 -8.328125 Z M 14.796875 -8.328125 "/></g></g></g><g fill="#1e3a8a" fill-opacity="1"><g transform="translate(246.57251, 267.62799)"><g><path d="M 7.578125 -4.296875 L 14.859375 -4.296875 L 14.859375 0 L 2.015625 0 L 2.015625 -22.84375 L 7.578125 -22.84375 Z M 7.578125 -4.296875 "/></g></g></g></svg>