<svg xmlns="http://www.w3.org/2000/svg" xmlns:xlink="http://www.w3.org/1999/xlink" width="500" zoomAndPan="magnify" viewBox="0 0 375 374.999991" height="500" preserveAspectRatio="xMidYMid meet" version="1.0"><defs><clipPath id="b7e47de169"><path d="M 127 97.210938 L 167 97.210938 L 167 139 L 127 139 Z M 127 97.210938 " clip-rule="nonzero"/></clipPath><clipPath id="45713872fb"><path d="M 28.050781 151 L 194 151 L 194 269 L 28.050781 269 Z M 28.050781 151 " clip-rule="nonzero"/></clipPath></defs><g clip-path="url(#b7e47de169)"><path fill="#991b1b" d="M 143.941406 104.003906 C 144.1875 103.503906 144.4375 103.035156 144.75 102.566406 C 144.8125 102.503906 144.84375 102.410156 144.90625 102.347656 C 146.246094 100.445312 148.085938 99.132812 150.703125 98.292969 L 150.796875 98.261719 C 153.816406 97.324219 156.933594 97.699219 159.519531 99.042969 C 162.136719 100.414062 164.257812 102.753906 165.222656 105.8125 L 165.253906 105.90625 C 166.71875 110.585938 165.941406 115.765625 164.039062 121.195312 C 162.261719 126.253906 159.582031 131.496094 156.871094 136.738281 C 156 138.421875 153.972656 139.078125 152.289062 138.203125 C 147.054688 135.488281 141.820312 132.773438 137.457031 129.683594 C 132.753906 126.316406 129.105469 122.507812 127.609375 117.796875 L 127.578125 117.703125 C 126.644531 114.675781 127.019531 111.554688 128.359375 108.964844 C 129.730469 106.34375 132.066406 104.222656 135.121094 103.253906 L 135.152344 103.253906 C 137.863281 102.378906 140.199219 102.441406 142.445312 103.316406 C 142.570312 103.347656 142.664062 103.410156 142.785156 103.472656 C 143.191406 103.628906 143.566406 103.816406 143.941406 104.003906 Z M 150.421875 106.375 C 149.828125 107.25 149.457031 108.558594 149.207031 110.242188 C 149.113281 110.992188 148.800781 111.742188 148.207031 112.304688 C 146.867188 113.613281 144.71875 113.582031 143.410156 112.242188 C 142.226562 111.023438 141.199219 110.148438 140.261719 109.746094 L 140.074219 109.683594 C 139.328125 109.402344 138.519531 109.371094 137.488281 109.683594 C 137.332031 109.746094 137.175781 109.808594 136.992188 109.839844 C 135.867188 110.273438 134.964844 111.085938 134.433594 112.117188 C 133.90625 113.144531 133.75 114.332031 134.0625 115.519531 C 134.125 115.671875 134.1875 115.859375 134.21875 116.015625 C 135.246094 118.980469 137.925781 121.632812 141.445312 124.128906 C 144.59375 126.378906 148.457031 128.5 152.414062 130.589844 C 154.472656 126.5625 156.375 122.632812 157.652344 118.980469 C 159.054688 114.925781 159.707031 111.179688 158.867188 108.152344 C 158.804688 107.996094 158.742188 107.839844 158.710938 107.652344 C 158.273438 106.53125 157.464844 105.625 156.433594 105.09375 C 155.40625 104.566406 154.222656 104.410156 153.039062 104.71875 C 152.882812 104.78125 152.726562 104.84375 152.539062 104.875 C 151.605469 105.21875 150.980469 105.65625 150.546875 106.25 Z M 150.796875 98.292969 C 151.105469 98.199219 151.417969 98.167969 151.730469 98.167969 Z M 127.609375 117.734375 C 127.519531 117.421875 127.488281 117.109375 127.488281 116.796875 Z M 127.609375 117.734375 " fill-opacity="1" fill-rule="nonzero"/></g><path fill="#1e3a8a" d="M 181.800781 181.269531 C 184.667969 170.625 185.042969 170.4375 185.882812 168.285156 C 184.792969 165.476562 183.015625 159.300781 180.867188 146.097656 C 177.3125 124.253906 179.898438 119.417969 179.898438 119.417969 C 180.679688 117.734375 182.703125 116.984375 184.417969 117.765625 C 184.605469 117.859375 184.761719 117.953125 184.917969 118.046875 L 216.515625 139.890625 C 220.003906 139.515625 230.132812 138.390625 240.757812 137.300781 C 239.667969 118.480469 254.125 104.066406 255.589844 102.628906 C 255.871094 102.316406 256.214844 102.066406 256.621094 101.910156 C 258.332031 101.132812 260.359375 101.910156 261.105469 103.628906 L 275.910156 136.582031 C 279.835938 138.015625 283.699219 140.355469 287.4375 143.476562 C 294.730469 149.53125 301.617188 158.550781 307.785156 169.066406 C 310.15625 173.121094 313.550781 177.992188 317.164062 183.203125 C 330.441406 202.300781 346.800781 225.890625 337.140625 244.332031 C 334.617188 249.140625 330.003906 253.945312 324.113281 258.28125 C 319.503906 261.683594 314.019531 264.867188 308.160156 267.613281 C 308.097656 267.644531 308.035156 267.675781 307.941406 267.707031 C 301.679688 270.609375 294.949219 272.980469 288.25 274.570312 C 274.878906 277.753906 261.511719 277.847656 251.882812 272.761719 C 249.734375 271.640625 247.769531 270.234375 246.023438 268.582031 C 242.96875 266.488281 236.707031 263.617188 229.914062 263.183594 C 225.488281 262.902344 220.910156 263.648438 217.074219 266.488281 C 211.871094 270.328125 205.203125 272.699219 199.75 272.855469 C 197.007812 272.917969 194.515625 272.449219 192.488281 271.328125 C 190.152344 270.046875 188.5 268.050781 187.816406 265.179688 C 187.128906 262.308594 187.597656 258.625 189.589844 254.039062 C 193.113281 245.988281 199.15625 240.808594 205.703125 237.65625 C 211.871094 234.691406 218.570312 233.535156 223.992188 233.535156 C 219.972656 225.578125 217.011719 218.839844 215.363281 214.875 C 212.898438 217.621094 211.371094 220.054688 211.371094 220.085938 C 210.375 221.679688 208.289062 222.148438 206.699219 221.148438 C 205.109375 220.148438 204.640625 218.058594 205.640625 216.46875 C 205.671875 216.4375 214.644531 202.144531 226.019531 200.675781 C 227.886719 200.429688 229.570312 201.769531 229.820312 203.609375 C 230.070312 205.484375 228.730469 207.167969 226.890625 207.417969 C 224.742188 207.699219 222.683594 208.695312 220.753906 210.007812 C 222.1875 213.566406 226.484375 223.769531 232.8125 235.722656 C 232.875 235.847656 232.96875 235.972656 233 236.09375 C 235.023438 239.902344 237.300781 243.898438 239.730469 247.921875 L 239.761719 247.984375 L 239.792969 248.015625 C 242.535156 252.539062 245.527344 257.066406 248.703125 261.371094 C 250.386719 263.648438 252.539062 265.429688 255.03125 266.738281 C 263.070312 270.953125 274.785156 270.765625 286.691406 267.925781 C 292.363281 266.582031 298.0625 264.617188 303.453125 262.277344 C 303.703125 259.28125 304.078125 253.101562 303.765625 246.425781 C 300.152344 246.050781 294.667969 244.863281 287.125 241.617188 C 271.949219 235.035156 269.300781 225.703125 274.535156 223.238281 C 279.773438 220.742188 287.75 216.40625 305.949219 213.660156 C 324.144531 210.914062 319.441406 221.835938 318.101562 227.949219 C 316.886719 233.503906 314.828125 243.304688 310.527344 245.800781 C 310.777344 250.699219 310.683594 255.378906 310.496094 258.84375 C 313.988281 256.972656 317.226562 254.914062 320.125 252.789062 C 325.238281 249.015625 329.132812 245.019531 331.15625 241.183594 C 338.917969 226.390625 323.835938 204.703125 311.589844 187.101562 C 307.972656 181.890625 304.578125 177.023438 301.929688 172.5 C 296.132812 162.605469 289.742188 154.210938 283.105469 148.6875 C 279.617188 145.785156 276.0625 143.695312 272.542969 142.605469 L 272.480469 142.574219 C 270.394531 141.949219 268.304688 141.699219 266.25 141.824219 C 252.507812 142.699219 216.140625 146.785156 216.015625 146.785156 C 215.238281 146.878906 214.394531 146.691406 213.710938 146.191406 L 185.632812 126.78125 C 185.664062 130.089844 186.070312 135.644531 187.597656 144.976562 C 190.804688 164.792969 192.113281 166.039062 192.113281 166.039062 C 192.988281 167.039062 193.238281 168.535156 192.582031 169.785156 C 192.582031 169.785156 192.550781 167.476562 188.65625 181.921875 C 185.726562 188.570312 180.867188 184.792969 181.800781 181.269531 Z M 282.015625 163.324219 C 285.597656 163.324219 288.496094 168.253906 288.496094 174.339844 C 288.496094 180.425781 285.597656 185.355469 282.015625 185.355469 C 278.433594 185.355469 275.535156 180.425781 275.535156 174.339844 C 275.566406 168.253906 278.464844 163.324219 282.015625 163.324219 Z M 251.476562 169.628906 C 255.0625 169.628906 257.960938 174.558594 257.960938 180.644531 C 257.960938 186.730469 255.0625 191.660156 251.476562 191.660156 C 247.894531 191.660156 244.996094 186.730469 244.996094 180.644531 C 244.996094 174.558594 247.894531 169.628906 251.476562 169.628906 Z M 234.308594 252.042969 C 232.8125 251.042969 226.546875 247.828125 213.429688 253.539062 C 211.714844 254.289062 209.722656 253.476562 208.972656 251.761719 C 208.226562 250.042969 209.035156 248.046875 210.75 247.296875 C 218.664062 243.867188 224.867188 243.242188 229.445312 243.679688 C 228.855469 242.617188 228.292969 241.585938 227.734375 240.558594 C 223.027344 239.871094 215.546875 240.496094 208.691406 243.773438 C 203.457031 246.300781 198.660156 250.386719 195.855469 256.753906 C 194.484375 259.875 194.109375 262.121094 194.484375 263.617188 C 194.671875 264.398438 195.136719 264.960938 195.792969 265.335938 C 196.726562 265.867188 198.066406 266.085938 199.625 266.054688 C 203.769531 265.960938 208.941406 264.054688 213.085938 260.996094 C 218.414062 257.097656 224.554688 256.003906 230.414062 256.378906 C 233 256.535156 235.523438 257.003906 237.890625 257.660156 C 236.644531 255.785156 235.460938 253.914062 234.308594 252.042969 Z M 234.308594 252.042969 " fill-opacity="1" fill-rule="nonzero"/><g clip-path="url(#45713872fb)"><path fill="#1e3a8a" d="M 82.148438 236.4375 C 81.992188 234.566406 83.394531 232.914062 85.261719 232.789062 C 87.132812 232.632812 88.785156 234.035156 88.910156 235.910156 C 88.910156 235.941406 89.40625 242.898438 92.523438 242.742188 C 96.917969 242.523438 100.78125 233.878906 100.8125 233.878906 C 101.589844 232.164062 103.617188 231.414062 105.300781 232.195312 C 106.265625 232.632812 106.921875 233.472656 107.167969 234.410156 C 107.167969 234.441406 109.941406 244.800781 115.023438 243.804688 C 121.410156 242.523438 123.714844 236.5 123.714844 236.46875 C 124.402344 234.722656 126.363281 233.847656 128.109375 234.535156 C 129.855469 235.222656 130.726562 237.1875 130.042969 238.933594 C 130.042969 238.964844 126.394531 248.421875 116.332031 250.449219 C 109.910156 251.730469 105.734375 247.046875 103.304688 242.710938 C 100.84375 245.957031 97.261719 249.328125 92.835938 249.546875 C 83.050781 250.042969 82.148438 236.46875 82.148438 236.4375 Z M 179.527344 255.070312 C 179.835938 256.910156 178.589844 258.6875 176.722656 259 C 174.882812 259.3125 173.105469 258.0625 172.796875 256.191406 C 171.953125 251.230469 170.988281 245.550781 169.960938 239.558594 C 164.972656 240.277344 161.578125 241.277344 161.546875 241.277344 C 159.738281 241.804688 157.867188 240.746094 157.339844 238.964844 C 156.808594 237.15625 157.867188 235.285156 159.644531 234.753906 C 159.675781 234.753906 163.351562 233.660156 168.773438 232.882812 C 168.214844 229.574219 167.621094 226.234375 167.03125 222.894531 C 161.546875 224.800781 158.367188 226.796875 158.367188 226.796875 C 156.777344 227.765625 154.660156 227.265625 153.691406 225.671875 C 152.726562 224.082031 153.226562 221.960938 154.816406 220.992188 C 154.847656 220.992188 158.898438 218.402344 165.816406 216.15625 C 165.503906 214.40625 165.191406 212.691406 164.878906 211.039062 C 164.507812 208.976562 164.132812 206.949219 163.757812 204.984375 C 160.546875 206.167969 157.589844 207.386719 155.125 208.480469 C 154.316406 208.820312 153.785156 209.070312 153.507812 209.195312 L 153.351562 209.257812 C 152.757812 209.539062 152.199219 209.789062 151.761719 210.007812 C 150.078125 210.820312 148.023438 210.070312 147.242188 208.386719 C 146.433594 206.699219 147.179688 204.671875 148.863281 203.859375 C 149.425781 203.609375 149.984375 203.328125 150.515625 203.082031 C 150.578125 203.050781 150.640625 203.019531 150.703125 203.019531 C 151.542969 202.644531 152.136719 202.363281 152.414062 202.238281 C 155.28125 200.957031 158.742188 199.554688 162.511719 198.179688 C 161.453125 192.75 160.488281 188.007812 159.707031 184.480469 C 156.683594 171.125 153.039062 163.761719 150.796875 160.203125 L 131.476562 180.269531 C 130.601562 181.175781 129.324219 181.484375 128.203125 181.207031 C 128.171875 181.207031 114.585938 177.710938 106.390625 178.117188 C 98.289062 178.492188 91.214844 181.328125 91.214844 181.328125 C 89.78125 181.921875 88.160156 181.421875 87.257812 180.269531 C 86.324219 179.207031 79.0625 171.21875 70.867188 168.785156 C 65.320312 167.132812 59.179688 166.351562 55.097656 165.976562 L 62.265625 191.941406 C 62.484375 192.6875 62.421875 193.4375 62.140625 194.09375 C 61.828125 195.027344 60.300781 199.773438 58.246094 207.136719 C 66.347656 208.820312 70.710938 211.660156 70.710938 211.691406 C 72.300781 212.691406 72.796875 214.78125 71.800781 216.375 C 70.804688 217.964844 68.714844 218.464844 67.125 217.464844 C 67.097656 217.464844 63.480469 215.0625 56.46875 213.691406 C 56.25 214.5625 56.003906 215.46875 55.785156 216.40625 C 54.847656 220.117188 54.101562 223.550781 53.507812 226.546875 C 59.179688 225.828125 63.449219 225.515625 63.480469 225.515625 C 65.351562 225.390625 67.003906 226.796875 67.125 228.667969 C 67.25 230.542969 65.847656 232.195312 63.980469 232.320312 C 63.949219 232.320312 58.683594 232.726562 52.292969 233.566406 C 52.042969 235.285156 51.859375 236.65625 51.765625 237.59375 C 52.949219 238.78125 55.003906 240.777344 57.683594 243.179688 C 63.167969 240.996094 66.597656 240.589844 66.628906 240.589844 C 68.496094 240.371094 70.179688 241.710938 70.398438 243.585938 C 70.617188 245.457031 69.277344 247.140625 67.40625 247.359375 C 67.40625 247.359375 66.003906 247.515625 63.605469 248.265625 C 69.839844 253.320312 77.566406 258.71875 84.953125 261.558594 C 86.695312 262.246094 87.601562 264.210938 86.914062 265.960938 C 86.261719 267.707031 84.265625 268.613281 82.519531 267.925781 C 73.203125 264.367188 63.511719 257.160156 56.4375 251.136719 C 52.636719 252.976562 48.054688 255.722656 43.007812 259.78125 C 41.542969 260.964844 39.394531 260.714844 38.242188 259.25 C 37.054688 257.785156 37.304688 255.628906 38.769531 254.476562 C 43.164062 250.949219 47.339844 248.296875 51.015625 246.300781 C 48.273438 243.742188 46.4375 241.898438 45.9375 241.371094 C 45.1875 240.683594 44.753906 239.652344 44.847656 238.5625 C 44.847656 238.5625 44.972656 237.15625 45.3125 234.660156 C 40.734375 235.472656 36.277344 236.5 33.191406 237.75 C 31.445312 238.46875 29.484375 237.625 28.765625 235.910156 C 28.050781 234.160156 28.890625 232.195312 30.605469 231.476562 C 34.65625 229.792969 40.640625 228.511719 46.4375 227.578125 C 47.089844 223.957031 47.992188 219.589844 49.238281 214.75 L 49.738281 212.847656 C 45.5625 212.566406 40.640625 212.753906 35 213.691406 C 33.160156 214.003906 31.382812 212.753906 31.074219 210.882812 C 30.761719 209.039062 32.007812 207.261719 33.878906 206.949219 C 40.609375 205.828125 46.527344 205.734375 51.515625 206.167969 C 53.355469 199.585938 54.847656 194.78125 55.472656 192.8125 L 47.308594 163.199219 C 47.214844 162.886719 47.183594 162.542969 47.183594 162.199219 C 47.214844 160.328125 48.773438 158.832031 50.640625 158.894531 C 50.671875 158.894531 62.671875 159.269531 72.828125 162.261719 C 80.808594 164.636719 87.878906 171.125 90.933594 174.246094 C 93.988281 173.246094 99.785156 171.65625 106.109375 171.34375 C 113.308594 171 123.714844 173.183594 127.984375 174.152344 L 148.582031 152.746094 C 148.644531 152.683594 148.707031 152.589844 148.769531 152.527344 C 150.109375 151.183594 152.261719 151.183594 153.601562 152.527344 C 153.632812 152.558594 161.203125 160.140625 166.375 182.984375 C 167.15625 186.386719 168.058594 190.878906 169.054688 196.058594 L 169.648438 195.871094 C 176.285156 193.96875 183.484375 192.625 190.183594 192.84375 C 192.054688 192.90625 193.546875 194.46875 193.488281 196.339844 C 193.425781 198.210938 191.867188 199.710938 189.996094 199.648438 C 184.105469 199.492188 177.625 200.707031 171.515625 202.457031 C 171.113281 202.582031 170.738281 202.675781 170.332031 202.800781 C 170.769531 205.046875 171.175781 207.386719 171.609375 209.789062 L 172.453125 214.34375 C 177.46875 213.253906 183.359375 212.535156 189.902344 212.816406 C 191.773438 212.878906 193.238281 214.46875 193.175781 216.34375 C 193.113281 218.214844 191.523438 219.679688 189.652344 219.617188 C 183.609375 219.371094 178.21875 220.023438 173.667969 221.054688 C 174.320312 224.800781 174.976562 228.511719 175.632812 232.195312 C 178.933594 232.007812 182.515625 232.007812 186.101562 232.414062 C 187.972656 232.632812 189.3125 234.316406 189.125 236.15625 C 188.90625 238.03125 187.222656 239.371094 185.382812 239.152344 C 182.457031 238.808594 179.558594 238.78125 176.816406 238.902344 C 177.78125 244.769531 178.714844 250.261719 179.527344 255.070312 Z M 179.527344 255.070312 " fill-opacity="1" fill-rule="nonzero"/></g><path fill="#1e3a8a" d="M 89.75 201.457031 C 93.023438 201.457031 95.703125 206.042969 95.703125 211.691406 C 95.703125 217.339844 93.054688 221.929688 89.75 221.929688 C 86.476562 221.929688 83.796875 217.339844 83.796875 211.691406 C 83.828125 206.011719 86.476562 201.457031 89.75 201.457031 Z M 89.75 201.457031 " fill-opacity="1" fill-rule="evenodd"/><path fill="#1e3a8a" d="M 124.652344 201.144531 C 127.921875 201.144531 130.601562 205.734375 130.601562 211.382812 C 130.601562 217.027344 127.953125 221.617188 124.652344 221.617188 C 121.378906 221.617188 118.699219 217.027344 118.699219 211.382812 C 118.699219 205.734375 121.378906 201.144531 124.652344 201.144531 Z M 124.652344 201.144531 " fill-opacity="1" fill-rule="evenodd"/></svg>